<svg xmlns="http://www.w3.org/2000/svg" xmlns:xlink="http://www.w3.org/1999/xlink" version="1.1" width="1000" height="1000" viewBox="0 0 1000 1000" xml:space="preserve">
<defs>
</defs>
<rect x="0" y="0" width="100%" height="100%" fill="none"/>
<g transform="matrix(3.1405 0 0 3.1405 500.0021 500.0021)" id="251283">
<g style="" vector-effect="non-scaling-stroke">
		<g transform="matrix(1 0 0 1 0 95)" id="Capa_1">
<path style="stroke: none; stroke-width: 1; stroke-dasharray: none; stroke-linecap: butt; stroke-dashoffset: 0; stroke-linejoin: miter; stroke-miterlimit: 4; is-custom-font: none; font-file-url: none; fill: rgb(255,219,110); fill-rule: nonzero; opacity: 1;" transform=" translate(-148.5, -243.5)" d="M 289 235.5 H 8 c -4.418 0 -8 3.582 -8 8 s 3.582 8 8 8 h 281 c 4.418 0 8 -3.582 8 -8 S 293.418 235.5 289 235.5 z" stroke-linecap="round"/>
</g>
		<g transform="matrix(1 0 0 1 19.3335 -15)" id="Capa_1">
<path style="stroke: none; stroke-width: 1; stroke-dasharray: none; stroke-linecap: butt; stroke-dashoffset: 0; stroke-linejoin: miter; stroke-miterlimit: 4; is-custom-font: none; font-file-url: none; fill: rgb(255,219,110); fill-rule: nonzero; opacity: 1;" transform=" translate(-167.8335, -133.5)" d="M 97 221.5 h 87 c 24.956 0 46.279 -15.844 54.444 -38 h 5.056 c 29.5 0 53.5 -24 53.5 -53.5 s -24 -53.5 -53.5 -53.5 h -1.833 v -23 c 0 -4.418 -3.249 -8 -7.667 -8 H 47 c -4.418 0 -8.333 3.582 -8.333 8 v 110 C 38.667 195.481 65.019 221.5 97 221.5 z M 225.667 100.979 c -8 -1.152 -13.275 -4.1 -19 -7.406 C 198.493 88.852 189.31 83.5 171.583 83.5 c -17.727 0 -26.951 5.351 -35.126 10.072 c -7.365 4.254 -13.706 7.928 -27.146 7.928 c -13.438 0 -19.956 -3.674 -27.321 -7.928 c -6.843 -3.952 -14.322 -8.333 -27.322 -9.66 V 61.5 h 171 V 100.979 z M 54.667 100.021 c 9 1.152 13.606 4.1 19.331 7.406 c 8.175 4.721 17.523 10.072 35.25 10.072 c 17.729 0 27.036 -5.352 35.211 -10.072 c 7.365 -4.254 13.747 -7.928 27.187 -7.928 c 13.439 0 19.811 3.674 27.176 7.928 c 6.771 3.91 14.146 8.244 26.605 9.62 c 0.132 0.015 0.24 0.026 0.24 0.04 v 0.422 v 45.99 c 0 23.159 -18.508 42 -41.667 42 H 97 c -23.159 0 -42.333 -18.841 -42.333 -42 V 100.021 z M 243.5 92.5 c 20.678 0 37.5 16.822 37.5 37.5 s -16.822 37.5 -37.5 37.5 h -1.653 c 0.091 -1.323 -0.18 -2.654 -0.18 -4 v -71 H 243.5 z" stroke-linecap="round"/>
</g>
</g>
</g>
</svg>