<?xml version="1.0" encoding="iso-8859-1"?>
<!-- Generator: Adobe Illustrator 16.0.0, SVG Export Plug-In . SVG Version: 6.00 Build 0)  -->
<!DOCTYPE svg PUBLIC "-//W3C//DTD SVG 1.1//EN" "http://www.w3.org/Graphics/SVG/1.1/DTD/svg11.dtd">
<svg version="1.1" id="Capa_1" xmlns="http://www.w3.org/2000/svg" xmlns:xlink="http://www.w3.org/1999/xlink" x="0px" y="0px"
	 width="304.186px" height="304.186px" viewBox="0 0 304.186 304.186" style="enable-background:new 0 0 304.186 304.186;"
	 xml:space="preserve">
<g>
	<g> 
		<g>
			<path fill="FFDB6E" d="M247,149.258c1.836-4.284,3.06-9.18,4.283-13.464c9.181,7.956,21.421,11.628,33.049,2.448
				c15.3-11.628,18.972-37.332,17.748-55.08c-0.612-15.912-4.896-38.556-21.421-44.676c-10.403-3.672-20.809,0-28.765,6.12
				c-19.584-20.196-64.872-17.136-89.964-17.748c-41.616,0-83.844,6.12-123.012,20.808c-1.836,0.612-2.448,1.836-1.836,3.672
				c-0.612,0-1.224-0.612-1.836-0.612c-1.836-0.612-3.672,1.224-3.06,3.06c-0.612,0-1.224,0.612-1.224,1.224
				c-7.344,35.496-5.508,76.5,17.136,105.875c-31.824,7.344-59.364,36.721-43.452,70.992
				c22.644,47.125,101.592,45.899,145.044,45.288c47.736-0.612,119.952-11.018,146.88-56.916
				C319.216,182.305,288.004,146.198,247,149.258z M250.672,75.206c2.448-1.836,6.12-3.06,9.18-2.448
				c5.509,1.224,9.181,6.732,9.792,12.24c0.612,4.896,1.225,12.852-4.283,15.3c-4.284,1.836-7.956-1.836-12.239-2.448
				C252.508,90.506,251.896,83.162,250.672,75.206z M284.332,62.966c3.672,6.732,3.672,16.524,3.672,23.868
				c0,20.808-6.12,50.184-34.884,36.108c0.611-4.896,0.611-10.404,0.611-15.912c4.896,3.06,12.239,3.06,16.523,1.224
				c8.567-4.284,9.792-16.524,7.344-25.092c-1.836-7.956-7.956-15.912-16.523-16.524c-4.283-0.612-8.567,0.612-11.628,3.06
				c-0.611-2.448-1.225-4.896-1.225-7.344C259.852,50.726,272.704,42.158,284.332,62.966z M138.675,37.262
				c28.152-1.224,77.113-4.896,102.816,12.852c-0.611,0-1.225,0-1.225,0.612c-0.611-1.224-1.836-1.836-3.672-1.224
				c-67.932,21.42-127.296,25.092-195.228,3.672C73.804,45.218,105.626,39.098,138.675,37.262z M239.655,55.622L239.655,55.622
				c0,1.224,0,2.448,0.611,3.672c-0.611,1.224,0,2.448,0.612,3.06c3.06,26.928,6.731,55.08-2.448,81.396
				c-12.852,37.333-49.571,53.856-86.292,53.245c-29.988-0.612-60.588-10.403-83.844-29.377
				c-35.496-29.376-30.6-69.156-33.66-110.772C95.834,87.446,179.067,89.894,239.655,55.622z M152.14,219.637
				c-12.852,0.612-26.316-0.611-39.168-3.06c-3.06-0.612-6.732-1.225-9.792-1.836c-14.688-1.225-22.644-10.403-25.092-27.541
				c22.032,12.853,48.348,19.584,73.44,19.584c25.705,0,52.632-6.731,72.216-23.256C240.88,206.786,161.319,219.637,152.14,219.637z
				 M288.615,216.579c-11.017,18.359-34.271,29.375-53.243,36.72c-28.765,11.016-59.978,14.688-91.188,14.688
				c-29.988,0-63.648-1.836-91.8-11.016c-25.704-8.568-54.468-31.824-37.944-63.035c7.344-14.076,22.032-22.646,36.72-28.152
				c1.224,1.226,1.836,2.447,3.06,3.672c4.896,4.896,10.404,9.181,16.524,13.465c-6.732,4.896-8.568,14.076-3.06,23.257
				c12.24,21.42,59.364,22.03,80.172,22.03c23.868,0,64.872-3.672,82.009-23.256c7.345-8.567,10.403-20.194-0.611-25.703
				c2.447-2.448,4.896-4.896,6.731-7.957c3.672-5.508,7.344-11.016,9.792-16.522C277.6,156.602,310.036,181.694,288.615,216.579z"/>
			<path fill="FFDB6E" d="M144.184,114.986c-2.448,4.896-4.896,9.18-7.956,12.852c-3.06-3.06-6.12-6.12-8.568-7.956
				c-10.404-8.568-24.48,4.896-15.3,15.3c6.732,7.344,13.464,15.3,22.032,20.195c4.284,1.836,8.568,0,10.404-3.06
				c9.792-4.284,15.3-18.972,18.972-28.152C168.664,111.926,149.69,103.97,144.184,114.986z"/>
		</g>
	</g>
</g>
<g>
</g>
<g>
</g>
<g>
</g>
<g>
</g>
<g>
</g>
<g>
</g>
<g>
</g>
<g>
</g>
<g>
</g>
<g>
</g>
<g>
</g>
<g>
</g>
<g>
</g>
<g>
</g>
<g>
</g>
</svg>
